<svg xmlns="http://www.w3.org/2000/svg" viewBox="0 -0.5 115 109" shape-rendering="crispEdges">
<metadata>Made with Pixels to Svg https://codepen.io/shshaw/pen/XbxvNj</metadata>
<path stroke="#282c34" d="M0 0h115M0 1h1M19 1h1M95 1h1M114 1h1M0 2h1M19 2h1M95 2h1M114 2h1M0 3h1M19 3h1M95 3h1M114 3h1M0 4h1M19 4h1M95 4h1M114 4h1M0 5h1M19 5h1M95 5h1M114 5h1M0 6h1M19 6h1M95 6h1M114 6h1M0 7h1M19 7h1M95 7h1M114 7h1M0 8h1M19 8h1M95 8h1M114 8h1M0 9h1M19 9h1M95 9h1M114 9h1M0 10h1M19 10h1M95 10h1M114 10h1M0 11h1M19 11h1M95 11h1M114 11h1M0 12h1M19 12h1M95 12h1M114 12h1M0 13h1M19 13h1M95 13h1M114 13h1M0 14h1M19 14h1M95 14h1M114 14h1M0 15h1M19 15h1M95 15h1M114 15h1M0 16h1M19 16h1M95 16h1M114 16h1M0 17h1M19 17h1M95 17h1M114 17h1M0 18h115M0 19h1M19 19h1M0 20h1M19 20h1M0 21h1M19 21h1M0 22h1M19 22h1M0 23h1M19 23h1M0 24h1M19 24h1M0 25h1M19 25h1M0 26h1M19 26h1M0 27h1M19 27h1M0 28h1M19 28h1M0 29h1M19 29h1M0 30h1M19 30h1M0 31h1M19 31h1M0 32h1M19 32h1M0 33h1M19 33h1M0 34h1M19 34h1M0 35h1M19 35h1M0 36h1M19 36h1M38 36h39M95 36h20M0 37h1M19 37h1M38 37h1M57 37h1M76 37h1M95 37h1M114 37h1M0 38h1M19 38h1M38 38h1M57 38h1M76 38h1M95 38h1M114 38h1M0 39h1M19 39h1M38 39h1M57 39h1M76 39h1M95 39h1M114 39h1M0 40h1M19 40h1M38 40h1M57 40h1M76 40h1M95 40h1M114 40h1M0 41h1M19 41h1M38 41h1M57 41h1M76 41h1M95 41h1M114 41h1M0 42h1M19 42h1M38 42h1M57 42h1M76 42h1M95 42h1M114 42h1M0 43h1M19 43h1M38 43h1M57 43h1M76 43h1M95 43h1M114 43h1M0 44h1M19 44h1M38 44h1M57 44h1M76 44h1M95 44h1M114 44h1M0 45h1M19 45h1M38 45h1M57 45h1M76 45h1M95 45h1M114 45h1M0 46h1M19 46h1M38 46h1M57 46h1M76 46h1M95 46h1M114 46h1M0 47h1M19 47h1M38 47h1M57 47h1M76 47h1M95 47h1M114 47h1M0 48h1M19 48h1M38 48h1M57 48h1M76 48h1M95 48h1M114 48h1M0 49h1M19 49h1M38 49h1M57 49h1M76 49h1M95 49h1M114 49h1M0 50h1M19 50h1M38 50h1M57 50h1M76 50h1M95 50h1M114 50h1M0 51h1M19 51h1M38 51h1M57 51h1M76 51h1M95 51h1M114 51h1M0 52h1M19 52h1M38 52h1M57 52h1M76 52h1M95 52h1M114 52h1M0 53h1M19 53h1M38 53h1M57 53h1M76 53h1M95 53h1M114 53h1M0 54h1M19 54h1M38 54h39M95 54h20M0 55h1M19 55h1M38 55h1M57 55h1M95 55h1M114 55h1M0 56h1M19 56h1M38 56h1M57 56h1M95 56h1M114 56h1M0 57h1M19 57h1M38 57h1M57 57h1M95 57h1M114 57h1M0 58h1M19 58h1M38 58h1M57 58h1M95 58h1M114 58h1M0 59h1M19 59h1M38 59h1M57 59h1M95 59h1M114 59h1M0 60h1M19 60h1M38 60h1M57 60h1M95 60h1M114 60h1M0 61h1M19 61h1M38 61h1M57 61h1M95 61h1M114 61h1M0 62h1M19 62h1M38 62h1M57 62h1M95 62h1M114 62h1M0 63h1M19 63h1M38 63h1M57 63h1M95 63h1M114 63h1M0 64h1M19 64h1M38 64h1M57 64h1M95 64h1M114 64h1M0 65h1M19 65h1M38 65h1M57 65h1M95 65h1M114 65h1M0 66h1M19 66h1M38 66h1M57 66h1M95 66h1M114 66h1M0 67h1M19 67h1M38 67h1M57 67h1M95 67h1M114 67h1M0 68h1M19 68h1M38 68h1M57 68h1M95 68h1M114 68h1M0 69h1M19 69h1M38 69h1M57 69h1M95 69h1M114 69h1M0 70h1M19 70h1M38 70h1M57 70h1M95 70h1M114 70h1M0 71h1M19 71h1M38 71h1M57 71h1M95 71h1M114 71h1M0 72h1M19 72h1M38 72h20M95 72h1M114 72h1M0 73h1M19 73h1M95 73h1M114 73h1M0 74h1M19 74h1M95 74h1M114 74h1M0 75h1M19 75h1M95 75h1M114 75h1M0 76h1M19 76h1M95 76h1M114 76h1M0 77h1M19 77h1M95 77h1M114 77h1M0 78h1M19 78h1M95 78h1M114 78h1M0 79h1M19 79h1M95 79h1M114 79h1M0 80h1M19 80h1M95 80h1M114 80h1M0 81h1M19 81h1M95 81h1M114 81h1M0 82h1M19 82h1M95 82h1M114 82h1M0 83h1M19 83h1M95 83h1M114 83h1M0 84h1M19 84h1M95 84h1M114 84h1M0 85h1M19 85h1M95 85h1M114 85h1M0 86h1M19 86h1M95 86h1M114 86h1M0 87h1M19 87h1M95 87h1M114 87h1M0 88h1M19 88h1M95 88h1M114 88h1M0 89h1M19 89h1M95 89h1M114 89h1M0 90h20M38 90h77M0 91h1M19 91h1M38 91h1M57 91h1M95 91h1M114 91h1M0 92h1M19 92h1M38 92h1M57 92h1M95 92h1M114 92h1M0 93h1M19 93h1M38 93h1M57 93h1M95 93h1M114 93h1M0 94h1M19 94h1M38 94h1M57 94h1M95 94h1M114 94h1M0 95h1M19 95h1M38 95h1M57 95h1M95 95h1M114 95h1M0 96h1M19 96h1M38 96h1M57 96h1M95 96h1M114 96h1M0 97h1M19 97h1M38 97h1M57 97h1M95 97h1M114 97h1M0 98h1M19 98h1M38 98h1M57 98h1M95 98h1M114 98h1M0 99h1M19 99h1M38 99h1M57 99h1M95 99h1M114 99h1M0 100h1M19 100h1M38 100h1M57 100h1M95 100h1M114 100h1M0 101h1M19 101h1M38 101h1M57 101h1M95 101h1M114 101h1M0 102h1M19 102h1M38 102h1M57 102h1M95 102h1M114 102h1M0 103h1M19 103h1M38 103h1M57 103h1M95 103h1M114 103h1M0 104h1M19 104h1M38 104h1M57 104h1M95 104h1M114 104h1M0 105h1M19 105h1M38 105h1M57 105h1M95 105h1M114 105h1M0 106h1M19 106h1M38 106h1M57 106h1M95 106h1M114 106h1M0 107h1M19 107h1M38 107h1M57 107h1M95 107h1M114 107h1M0 108h20M38 108h77" />
<path stroke="#dfdfe6" d="M1 1h18M96 1h18M1 2h1M96 2h1M1 3h1M96 3h1M1 4h1M96 4h1M1 5h1M96 5h1M1 6h1M96 6h1M1 7h1M96 7h1M1 8h1M96 8h1M1 9h1M96 9h1M1 10h1M96 10h1M1 11h1M96 11h1M1 12h1M96 12h1M1 13h1M96 13h1M1 14h1M96 14h1M1 15h1M96 15h1M1 16h1M96 16h1M1 17h1M96 17h1M39 37h18M58 37h18M96 37h18M39 38h1M58 38h1M96 38h1M39 39h1M58 39h1M96 39h1M39 40h1M58 40h1M96 40h1M39 41h1M58 41h1M96 41h1M39 42h1M58 42h1M96 42h1M39 43h1M58 43h1M96 43h1M39 44h1M58 44h1M96 44h1M39 45h1M58 45h1M96 45h1M39 46h1M58 46h1M96 46h1M39 47h1M58 47h1M96 47h1M39 48h1M58 48h1M96 48h1M39 49h1M58 49h1M96 49h1M39 50h1M58 50h1M96 50h1M39 51h1M58 51h1M96 51h1M39 52h1M58 52h1M96 52h1M39 53h1M58 53h1M96 53h1M39 55h18M39 56h1M39 57h1M39 58h1M39 59h1M39 60h1M39 61h1M39 62h1M39 63h1M39 64h1M39 65h1M39 66h1M39 67h1M39 68h1M39 69h1M39 70h1M39 71h1M1 91h18M39 91h18M96 91h18M1 92h1M39 92h1M96 92h1M1 93h1M39 93h1M96 93h1M1 94h1M39 94h1M96 94h1M1 95h1M39 95h1M96 95h1M1 96h1M39 96h1M96 96h1M1 97h1M39 97h1M96 97h1M1 98h1M39 98h1M96 98h1M1 99h1M39 99h1M96 99h1M1 100h1M39 100h1M96 100h1M1 101h1M39 101h1M96 101h1M1 102h1M39 102h1M96 102h1M1 103h1M39 103h1M96 103h1M1 104h1M39 104h1M96 104h1M1 105h1M39 105h1M96 105h1M1 106h1M39 106h1M96 106h1M1 107h1M39 107h1M96 107h1" />
<path stroke="#ffc298" d="M20 1h75M20 2h1M20 3h1M20 4h1M20 5h1M20 6h1M20 7h1M20 8h1M20 9h1M20 10h1M20 11h1M20 12h1M20 13h1M20 14h1M20 15h1M20 16h1M20 17h1M1 19h18M1 20h1M1 21h1M1 22h1M1 23h1M1 24h1M1 25h1M1 26h1M1 27h1M1 28h1M1 29h1M1 30h1M1 31h1M1 32h1M1 33h1M1 34h1M1 35h1M1 36h1M1 37h1M1 38h1M1 39h1M1 40h1M1 41h1M1 42h1M1 43h1M1 44h1M1 45h1M1 46h1M1 47h1M1 48h1M1 49h1M1 50h1M1 51h1M1 52h1M1 53h1M1 54h1M1 55h1M96 55h18M1 56h1M96 56h1M1 57h1M96 57h1M1 58h1M96 58h1M1 59h1M96 59h1M1 60h1M96 60h1M1 61h1M96 61h1M1 62h1M96 62h1M1 63h1M96 63h1M1 64h1M96 64h1M1 65h1M96 65h1M1 66h1M96 66h1M1 67h1M96 67h1M1 68h1M96 68h1M1 69h1M96 69h1M1 70h1M96 70h1M1 71h1M96 71h1M1 72h1M96 72h1M1 73h1M96 73h1M1 74h1M96 74h1M1 75h1M96 75h1M1 76h1M96 76h1M1 77h1M96 77h1M1 78h1M96 78h1M1 79h1M96 79h1M1 80h1M96 80h1M1 81h1M96 81h1M1 82h1M96 82h1M1 83h1M96 83h1M1 84h1M96 84h1M1 85h1M96 85h1M1 86h1M96 86h1M1 87h1M96 87h1M1 88h1M96 88h1M1 89h1M96 89h1M58 91h37M58 92h1M58 93h1M58 94h1M58 95h1M58 96h1M58 97h1M58 98h1M58 99h1M58 100h1M58 101h1M58 102h1M58 103h1M58 104h1M58 105h1M58 106h1M58 107h1" />
<path stroke="#bababf" d="M2 2h16M97 2h16M2 3h16M97 3h16M2 4h16M97 4h16M2 5h16M97 5h16M2 6h16M97 6h16M2 7h16M97 7h16M2 8h16M97 8h16M2 9h16M97 9h16M2 10h16M97 10h16M2 11h16M97 11h16M2 12h16M97 12h16M2 13h16M97 13h16M2 14h16M97 14h16M2 15h16M97 15h16M2 16h16M97 16h16M40 38h16M59 38h16M97 38h16M40 39h16M59 39h16M97 39h16M40 40h16M59 40h16M97 40h16M40 41h16M59 41h16M97 41h16M40 42h16M59 42h16M97 42h16M40 43h16M59 43h16M97 43h16M40 44h16M59 44h16M97 44h16M40 45h16M59 45h16M97 45h16M40 46h16M59 46h16M97 46h16M40 47h16M59 47h16M97 47h16M40 48h16M59 48h16M97 48h16M40 49h16M59 49h16M97 49h16M40 50h16M59 50h16M97 50h16M40 51h16M59 51h16M97 51h16M40 52h16M59 52h16M97 52h16M40 56h16M40 57h16M40 58h16M40 59h16M40 60h16M40 61h16M40 62h16M40 63h16M40 64h16M40 65h16M40 66h16M40 67h16M40 68h16M40 69h16M40 70h16M2 92h16M40 92h16M97 92h16M2 93h16M40 93h16M97 93h16M2 94h16M40 94h16M97 94h16M2 95h16M40 95h16M97 95h16M2 96h16M40 96h16M97 96h16M2 97h16M40 97h16M97 97h16M2 98h16M40 98h16M97 98h16M2 99h16M40 99h16M97 99h16M2 100h16M40 100h16M97 100h16M2 101h16M40 101h16M97 101h16M2 102h16M40 102h16M97 102h16M2 103h16M40 103h16M97 103h16M2 104h16M40 104h16M97 104h16M2 105h16M40 105h16M97 105h16M2 106h16M40 106h16M97 106h16" />
<path stroke="#656569" d="M18 2h1M113 2h1M18 3h1M113 3h1M18 4h1M113 4h1M18 5h1M113 5h1M18 6h1M113 6h1M18 7h1M113 7h1M18 8h1M113 8h1M18 9h1M113 9h1M18 10h1M113 10h1M18 11h1M113 11h1M18 12h1M113 12h1M18 13h1M113 13h1M18 14h1M113 14h1M18 15h1M113 15h1M18 16h1M113 16h1M2 17h17M97 17h17M56 38h1M75 38h1M113 38h1M56 39h1M75 39h1M113 39h1M56 40h1M75 40h1M113 40h1M56 41h1M75 41h1M113 41h1M56 42h1M75 42h1M113 42h1M56 43h1M75 43h1M113 43h1M56 44h1M75 44h1M113 44h1M56 45h1M75 45h1M113 45h1M56 46h1M75 46h1M113 46h1M56 47h1M75 47h1M113 47h1M56 48h1M75 48h1M113 48h1M56 49h1M75 49h1M113 49h1M56 50h1M75 50h1M113 50h1M56 51h1M75 51h1M113 51h1M56 52h1M75 52h1M113 52h1M40 53h17M59 53h17M97 53h17M56 56h1M56 57h1M56 58h1M56 59h1M56 60h1M56 61h1M56 62h1M56 63h1M56 64h1M56 65h1M56 66h1M56 67h1M56 68h1M56 69h1M56 70h1M40 71h17M18 92h1M56 92h1M113 92h1M18 93h1M56 93h1M113 93h1M18 94h1M56 94h1M113 94h1M18 95h1M56 95h1M113 95h1M18 96h1M56 96h1M113 96h1M18 97h1M56 97h1M113 97h1M18 98h1M56 98h1M113 98h1M18 99h1M56 99h1M113 99h1M18 100h1M56 100h1M113 100h1M18 101h1M56 101h1M113 101h1M18 102h1M56 102h1M113 102h1M18 103h1M56 103h1M113 103h1M18 104h1M56 104h1M113 104h1M18 105h1M56 105h1M113 105h1M18 106h1M56 106h1M113 106h1M2 107h17M40 107h17M97 107h17" />
<path stroke="#df7126" d="M21 2h73M21 3h73M21 4h73M21 5h73M21 6h73M21 7h73M21 8h73M21 9h73M21 10h73M21 11h73M21 12h73M21 13h73M21 14h73M21 15h73M21 16h73M2 20h16M2 21h16M2 22h16M2 23h16M2 24h16M2 25h16M2 26h16M2 27h16M2 28h16M2 29h16M2 30h16M2 31h16M2 32h16M2 33h16M2 34h16M2 35h16M2 36h16M2 37h16M2 38h16M2 39h16M2 40h16M2 41h16M2 42h16M2 43h16M2 44h16M2 45h16M2 46h16M2 47h16M2 48h16M2 49h16M2 50h16M2 51h16M2 52h16M2 53h16M2 54h16M2 55h16M2 56h16M97 56h16M2 57h16M97 57h16M2 58h16M97 58h16M2 59h16M97 59h16M2 60h16M97 60h16M2 61h16M97 61h16M2 62h16M97 62h16M2 63h16M97 63h16M2 64h16M97 64h16M2 65h16M97 65h16M2 66h16M97 66h16M2 67h16M97 67h16M2 68h16M97 68h16M2 69h16M97 69h16M2 70h16M97 70h16M2 71h16M97 71h16M2 72h16M97 72h16M2 73h16M97 73h16M2 74h16M97 74h16M2 75h16M97 75h16M2 76h16M97 76h16M2 77h16M97 77h16M2 78h16M97 78h16M2 79h16M97 79h16M2 80h16M97 80h16M2 81h16M97 81h16M2 82h16M97 82h16M2 83h16M97 83h16M2 84h16M97 84h16M2 85h16M97 85h16M2 86h16M97 86h16M2 87h16M97 87h16M2 88h16M97 88h16M59 92h35M59 93h35M59 94h35M59 95h35M59 96h35M59 97h35M59 98h35M59 99h35M59 100h35M59 101h35M59 102h35M59 103h35M59 104h35M59 105h35M59 106h35" />
<path stroke="#75451b" d="M94 2h1M94 3h1M94 4h1M94 5h1M94 6h1M94 7h1M94 8h1M94 9h1M94 10h1M94 11h1M94 12h1M94 13h1M94 14h1M94 15h1M94 16h1M21 17h74M18 20h1M18 21h1M18 22h1M18 23h1M18 24h1M18 25h1M18 26h1M18 27h1M18 28h1M18 29h1M18 30h1M18 31h1M18 32h1M18 33h1M18 34h1M18 35h1M18 36h1M18 37h1M18 38h1M18 39h1M18 40h1M18 41h1M18 42h1M18 43h1M18 44h1M18 45h1M18 46h1M18 47h1M18 48h1M18 49h1M18 50h1M18 51h1M18 52h1M18 53h1M18 54h1M18 55h1M18 56h1M113 56h1M18 57h1M113 57h1M18 58h1M113 58h1M18 59h1M113 59h1M18 60h1M113 60h1M18 61h1M113 61h1M18 62h1M113 62h1M18 63h1M113 63h1M18 64h1M113 64h1M18 65h1M113 65h1M18 66h1M113 66h1M18 67h1M113 67h1M18 68h1M113 68h1M18 69h1M113 69h1M18 70h1M113 70h1M18 71h1M113 71h1M18 72h1M113 72h1M18 73h1M113 73h1M18 74h1M113 74h1M18 75h1M113 75h1M18 76h1M113 76h1M18 77h1M113 77h1M18 78h1M113 78h1M18 79h1M113 79h1M18 80h1M113 80h1M18 81h1M113 81h1M18 82h1M113 82h1M18 83h1M113 83h1M18 84h1M113 84h1M18 85h1M113 85h1M18 86h1M113 86h1M18 87h1M113 87h1M18 88h1M113 88h1M2 89h17M97 89h17M94 92h1M94 93h1M94 94h1M94 95h1M94 96h1M94 97h1M94 98h1M94 99h1M94 100h1M94 101h1M94 102h1M94 103h1M94 104h1M94 105h1M94 106h1M59 107h36" />
</svg>